<svg xmlns="http://www.w3.org/2000/svg" width="128" height="128" viewBox="0 0 512 512">
  <g transform="translate(128, 128) scale(0.5)">
    <path d="M236,29C243.97,33.96 250.55,42.87 255,51C255,51.66 255,52.32 255,53C255.66,53 256.32,53 257,53C257.25,52.29 257.51,51.57 257.77,50.84C261.14,43.07 268.2,32.9 276,29C281.84,28.4 285.1,29.76 289.62,33.25C290.53,33.92 290.53,33.92 291.44,34.61C318,54.85 336.11,82.79 340.98,116.11C342.7,129.12 342.02,141.97 341,155C341.96,154.55 342.92,154.11 343.9,153.64C374.66,139.56 407.56,136.45 439.68,148.27C451.27,152.79 461.95,158.68 472,166C472.75,166.52 473.49,167.05 474.26,167.59C475.21,168.32 475.21,168.32 476.19,169.06C476.72,169.47 477.25,169.87 477.79,170.29C479.81,173.15 479.9,175.53 480,179C478.95,181.72 477.94,183.9 476.5,186.38C476.14,187.02 475.78,187.67 475.4,188.34C472.4,193.6 468.97,198.42 465,203C468.44,204.86 471.99,206.06 475.69,207.31C490.32,212.49 490.32,212.49 494,218C495.36,235.75 481.6,258.25 470.66,271.64C467.57,275.23 464.3,278.61 461,282C460.36,282.72 459.71,283.43 459.05,284.17C442.1,302.56 416.72,310.92 393,316C393.62,316.64 394.23,317.29 394.87,317.95C409.36,333.4 420.45,351.46 426,372C426.32,373.13 426.64,374.27 426.96,375.44C432.66,399.79 430.73,429.15 420,452C418.34,454.25 417.57,454.89 414.83,455.43C403.96,455.45 393.85,452.41 384,448C384.17,448.98 384.34,449.96 384.52,450.97C385.12,455.18 384.97,459.21 384.69,463.44C384.65,464.15 384.62,464.86 384.58,465.6C383.81,478.27 383.81,478.27 380.22,481.7C377.66,483.2 376.17,483.39 373.21,483.4C372.28,483.4 371.35,483.41 370.39,483.42C369.39,483.4 368.4,483.39 367.38,483.38C366.35,483.37 365.32,483.36 364.26,483.35C345.33,482.98 325.32,479.06 309,469C307.52,466.04 307.94,463.26 308,460C307.28,459.76 306.56,459.51 305.82,459.26C302.67,457.85 300.47,456.07 297.81,453.88C292.9,450.17 290.14,449.53 284.14,450.01C282,450 282,450 279.44,448.12C278.23,446.58 278.23,446.58 277,445C276.37,444.36 275.74,443.73 275.09,443.07C269.04,436.9 257,423.98 257,415C256.34,415 255.68,415 255,415C254.76,415.85 254.52,416.69 254.27,417.56C252.85,421.41 250.91,424.63 248.62,428C248.19,428.65 247.75,429.3 247.3,429.97C228.52,457.17 202.96,473.52 171,481C169.95,481.25 168.9,481.5 167.82,481.75C160.45,483.16 152.98,483.29 145.5,483.44C144.45,483.47 143.4,483.51 142.31,483.54C137.6,483.57 134.86,483.57 130.86,480.93C128.62,477.4 128.11,474.84 127.69,470.69C127.62,470.02 127.55,469.35 127.47,468.67C126.77,461.59 126.83,455.02 128,448C127.17,448.34 126.33,448.68 125.47,449.02C104.82,457.21 104.82,457.21 95,455C91.33,451.49 89.83,447.47 88.44,442.69C88.23,441.98 88.02,441.27 87.8,440.54C87.18,438.36 86.59,436.18 86,434C85.68,432.84 85.35,431.68 85.02,430.48C77.75,399.37 83.88,367.06 99.87,339.81C105.26,331.17 112.11,323.45 119,316C117.11,315.56 117.11,315.56 115.19,315.12C93.14,309.89 72.96,302.61 56,287C55.48,286.53 54.97,286.05 54.43,285.56C38.8,271.05 27.37,253.66 20.44,233.44C20.19,232.71 19.93,231.99 19.67,231.24C18.1,226.34 17.36,222.14 18,217C21.41,213.15 26.15,211.36 30.81,209.38C31.49,209.08 32.16,208.78 32.85,208.47C37.5,206.46 42.06,205.12 47,204C46.23,202.86 46.23,202.86 45.44,201.69C32.19,181.75 32.19,181.75 31.75,175.44C35.64,164.74 51.54,157.7 61.24,152.89C92.97,138.2 125.69,137.79 158.29,149.18C162.71,150.81 166.83,152.81 171,155C170.84,153.14 170.84,153.14 170.68,151.24C170.55,149.6 170.43,147.95 170.31,146.31C170.24,145.5 170.17,144.68 170.09,143.84C169.83,140.05 169.78,137.55 171.23,133.98C173.16,131.82 174.16,131.29 177,131C177.06,129.98 177.12,128.95 177.18,127.89C177.27,126.53 177.35,125.17 177.44,123.81C177.48,123.14 177.52,122.47 177.56,121.77C177.79,118.1 178.17,114.58 179,111C178.36,110.71 177.72,110.42 177.06,110.12C175,109 175,109 174,107C174.28,98.41 176.61,88.3 182.44,81.69C185.53,79.65 187.37,79.58 191,80C191.24,79.31 191.49,78.61 191.74,77.89C193.2,74.53 195.06,71.71 197.12,68.69C197.85,67.62 198.57,66.55 199.32,65.45C200.15,64.24 200.15,64.24 201,63C200.67,62.34 200.34,61.68 200,61C199.63,57.06 199.54,54.76 201.62,51.33C224.3,27.27 224.3,27.27 236,29Z" fill="#020101"/>
    <path d="M231.98,46C240.93,50.44 245.76,64.24 249,73C249.34,74.11 249.68,75.21 250.03,76.35C250.7,79.14 250.7,79.14 253,80C257,80.45 257,80.45 260.55,78.89C262.55,76.28 263.26,73.63 264.25,70.5C267.46,61.12 272.42,53.38 279,46C290.33,47.76 301.1,62.7 307.63,71.47C325.88,97.06 330.48,126.68 325.61,157.44C320.6,184.62 306.92,210.02 288,230C283.34,229.11 279.49,226.7 275.36,224.47C272.55,223.24 270.25,222.53 267.29,221.91C266.48,221.74 265.68,221.56 264.85,221.39C263.93,221.19 263.93,221.19 263,221C262.99,220.44 262.99,219.89 262.98,219.31C262.94,213.52 262.87,207.73 262.79,201.94C262.76,199.78 262.74,197.61 262.72,195.45C262.7,192.35 262.66,189.24 262.6,186.14C262.6,185.17 262.6,184.2 262.6,183.2C262.58,182.3 262.56,181.4 262.54,180.47C262.53,179.68 262.52,178.89 262.51,178.07C262.15,175.83 262.15,175.83 260.12,174.24C257.48,172.7 256.01,172.54 253,173C250.93,174.58 250.1,175.48 249.6,178.07C249.59,178.86 249.57,179.65 249.56,180.47C249.54,181.37 249.52,182.27 249.5,183.2C249.5,184.17 249.49,185.14 249.48,186.14C249.46,187.63 249.46,187.63 249.43,189.15C249.38,192.33 249.34,195.51 249.31,198.69C249.27,200.84 249.24,203 249.2,205.15C249.12,210.43 249.05,215.72 249,221C244.05,221.99 244.05,221.99 239,223C238.31,221.83 237.62,220.66 236.91,219.45C231.5,210.36 226.04,201.92 219,194C218.28,193.16 217.56,192.33 216.82,191.46C209.91,183.54 202.63,176.06 193.5,170.75C189.3,167.89 188.13,165.62 187,160.69C186.35,156.53 185.93,152.38 185.53,148.2C185.45,147.38 185.37,146.57 185.29,145.74C185.14,144.15 185.01,142.55 184.9,140.95C184.56,136.56 184.56,136.56 182.12,133.04C179.9,131.89 179.9,131.89 177,131C177.14,128.6 177.28,126.21 177.43,123.81C177.47,123.14 177.47,122.47 177.55,121.77C177.78,118.1 178.17,114.58 179,111C178.36,110.71 177.72,110.42 177.06,110.12C175,109 175,109 174,107C174.28,98.41 176.61,88.3 182.43,81.69C185.53,79.65 187.36,79.58 191,80C191.25,79.31 191.51,78.61 191.78,77.89C194.09,72.41 196.88,67.33 201,63C203.67,62.53 205.74,62.86 208.42,63.21C213.13,62.82 215.52,59.03 218.54,55.7C220.85,53.16 223.2,50.97 225.87,48.81C226.57,48.24 227.27,47.67 227.99,47.08C230,46 230,46 231.98,46Z" fill="#FD8EB7"/>
    <path d="M297,301C302.11,301.7 306.6,303.83 311.31,305.81C320.09,309.41 328.71,312.12 338,314C339.04,314.21 340.07,314.43 341.14,314.64C346.18,315.54 351.08,316.03 356.2,316.09C372.54,316.32 372.54,316.32 376.81,320.06C377.91,321.35 378.97,322.66 380,324C381.28,325.22 382.57,326.43 383.88,327.62C404.6,348.8 415.22,375.08 415.25,404.63C415.12,416.71 413.39,428.7 409,440C397.33,439.33 386,433.54 376.91,426.34C374.17,424.42 372.26,424.58 369,425C366.9,425.85 366.9,425.85 366,428C366.14,431.72 366.68,434.92 367.75,438.49C370.65,448.3 370.27,457.87 370,468C352.38,468.91 336.49,466.2 320.39,458.88C316.76,457.54 314.65,457.84 311,459C310.01,459.66 309.02,460.32 308,461C304.3,458.72 300.65,456.37 297,454C296.32,453.6 295.64,453.19 294.93,452.77C293.31,451.69 293.31,451.69 291,449C291,446.86 291,446.86 291.25,444.38C291.47,440.78 291.3,439.42 289.15,436.47C287.4,434.67 285.64,432.88 283.86,431.11C275.12,422.05 269.17,409.33 264,398C263.55,397.03 263.1,396.05 262.64,395.05C253.42,373.24 250.6,346.37 255,323C255.74,322.9 256.48,322.8 257.24,322.7C263.77,321.74 269.54,320.27 275.62,317.71C278.34,316.9 279.37,317.03 282,318C283.37,319.42 283.37,319.42 284.59,321.25C285.06,321.94 285.53,322.62 286.01,323.32C286.5,324.06 286.99,324.8 287.5,325.56C288.56,327.11 289.62,328.65 290.68,330.19C291.49,331.38 291.49,331.38 292.32,332.59C295.02,336.46 297.85,340.23 300.69,344C301.2,344.69 301.72,345.38 302.25,346.08C304.49,349.16 304.49,349.16 307,352C310.46,352.25 310.46,352.25 314,352C316.3,350.1 316.3,350.1 316.49,346.91C315.82,341.57 313.43,338.67 310.19,334.5C309.61,333.72 309.02,332.94 308.43,332.14C306.07,329 303.68,325.89 301.29,322.77C300.22,321.38 299.16,319.98 298.1,318.58C297.14,317.3 296.16,316.03 295.16,314.77C291.98,310.57 291.98,310.57 292.08,307.76C293.4,305.23 295.14,303.16 297,301Z" fill="#FD8EB7"/>
    <path d="M208,287C208.21,287.62 208.42,288.23 208.63,288.87C210.78,294.78 213.4,299.22 217.51,303.99C219.1,306.13 219.66,307.38 220,310C219.17,311.7 219.17,311.7 217.82,313.4C217.33,314.04 216.84,314.67 216.33,315.33C215.79,316.01 215.25,316.68 214.69,317.38C213.58,318.8 212.47,320.23 211.36,321.66C210.52,322.74 210.52,322.74 209.66,323.84C207.15,327.11 204.76,330.45 202.38,333.81C201.76,334.68 201.76,334.68 201.12,335.57C196.57,341.66 196.57,341.66 196,349C196.92,351.08 196.92,351.08 199,352C203.34,351.9 205.36,351.62 208.52,348.55C209.28,347.48 210.03,346.41 210.81,345.31C211.23,344.74 211.64,344.16 212.07,343.57C213.4,341.73 214.7,339.86 216,338C216.89,336.75 217.79,335.51 218.69,334.27C220.75,331.42 222.78,328.55 224.81,325.68C226.86,322.78 228.93,319.89 231,317C234.57,317.61 237.66,318.62 241,320C240.98,321.14 240.97,322.29 240.95,323.46C240.9,327.8 240.86,332.14 240.84,336.47C240.82,338.33 240.8,340.19 240.77,342.05C240.55,358.22 241.23,374.24 247.23,389.46C249.16,395.82 247.45,399.76 244.5,405.44C244,406.34 243.51,407.25 243,408.19C242.24,409.6 242.24,409.6 241.47,411.03C237.79,417.8 233.97,424.09 229,430C228.18,430.98 227.36,431.96 226.52,432.97C207.65,454.86 180.59,466.7 152,469C148.97,469.12 146.03,469.1 143,469C140.56,466.56 141.69,459.58 141.67,456.14C141.74,449.02 142.95,442.98 145.22,436.26C146.13,432.47 145.9,429.77 145,426C142.18,424.59 140.13,424.74 137,425C134.54,426.31 134.54,426.31 132.31,428.19C124.27,434.16 113.28,440 103,440C101.62,434.68 100.29,429.34 99,424C98.77,423.05 98.53,422.1 98.29,421.12C92.93,396.29 99.43,369.57 112,348C117.25,340.05 123.47,332.92 130,326C130.62,325.32 131.25,324.65 131.89,323.95C148.03,307.03 169.81,295.83 192,289.06C192.68,288.85 193.36,288.64 194.07,288.42C198.83,287.05 203.04,286.82 208,287Z" fill="#FD8EB6"/>
    <path d="M428,160C428.67,160.22 429.34,160.45 430.02,160.68C442.1,164.76 453.03,169.94 463,178C459.66,189.55 449.68,198.11 440.23,205.03C437.6,206.91 437.6,206.91 437.56,210.62C437.66,214.07 437.66,214.07 440,216C442.01,216.21 444.04,216.31 446.06,216.38C451.86,216.71 457.29,217.54 462.94,218.88C463.63,219.04 464.33,219.2 465.05,219.36C469.61,220.49 473.73,222.05 478,224C475.35,242.54 462.6,258.9 450,272C449.43,272.65 448.86,273.29 448.27,273.96C434.34,289.25 412.87,297.43 393,301C391.8,301.22 390.61,301.45 389.38,301.68C364.08,305.73 327.68,304.65 306,289C305.05,286.4 304.8,284.79 305.47,282.11C306.02,279.92 306.2,277.92 306.32,275.67C306.38,274.47 306.38,274.47 306.44,273.25C306.48,272.43 306.52,271.6 306.56,270.75C306.61,269.91 306.65,269.07 306.69,268.2C306.8,266.14 306.9,264.07 307,262C308.54,261.48 308.54,261.48 310.1,260.95C313.93,259.65 317.75,258.34 321.57,257.04C323.22,256.48 324.87,255.91 326.52,255.35C328.9,254.54 331.28,253.73 333.66,252.92C334.75,252.92 334.75,252.92 335.87,252.17C337.92,251.47 339.96,250.74 342,250C342.67,249.76 343.34,249.52 344.04,249.27C346.18,248.49 346.18,248.49 349,247C350.33,243.56 350.33,243.56 350,240C349.15,237.9 349.15,237.9 347,237C341.18,236.56 336.64,237.78 331.22,239.62C330.41,239.89 329.6,240.16 328.76,240.43C326.19,241.28 323.63,242.14 321.06,243C319.31,243.58 317.56,244.16 315.81,244.73C311.54,246.15 307.27,247.57 303,249C300.75,246.8 298.85,244.55 297,242C298.55,238.49 300.66,235.86 303.12,232.94C313.14,220.83 321.43,208.19 327.75,193.81C328.05,193.14 328.35,192.46 328.65,191.77C330.32,187.89 331.5,184.1 332.56,180C334.73,173.86 339.56,171.48 345.1,168.77C346.4,168.18 347.7,167.59 349,167C350.78,166.18 350.78,166.18 352.59,165.35C356.35,163.74 360.13,162.33 364,161C364.68,160.76 365.35,160.51 366.05,160.26C385.46,153.43 408.56,153.09 428,160Z" fill="#FD8EB7"/>
    <path d="M190.63,184.52C193.48,186.95 196.25,189.46 199,192C199.84,192.76 200.67,193.53 201.52,194.31C210.98,203.35 220.42,215.07 226,227C226.01,230.11 225.01,231 222.89,233.3C222.02,234.11 221.15,234.92 220.25,235.75C215.96,239.9 212.89,243.8 210,249C199.93,246.69 190.29,243.48 180.54,240.06C178.83,239.47 178.83,239.47 177.07,238.87C176.05,238.51 175.03,238.15 173.97,237.78C170.18,236.79 166.61,236.12 163.07,238.07C161.75,240.14 161.75,240.14 161.75,243.44C162.67,247.33 162.67,247.33 166.52,248.87C173.88,251.89 181.5,254.28 189.07,256.75C190.62,257.27 192.16,257.78 193.71,258.29C197.48,259.53 201.24,260.77 205,262C205,265.63 205,269.26 205,273C204.13,273.15 203.26,273.3 202.36,273.45C181.39,277.27 158.78,284.79 142.13,298.55C138.05,301.91 135.14,302.6 129.85,302.29C128.91,302.2 127.97,302.1 127,302C125.95,301.91 124.9,301.81 123.81,301.72C97.13,298.62 71.69,285.16 54.32,264.69C46.64,254.95 40.86,244.39 36,233C35.62,232.14 35.24,231.27 34.84,230.38C34,228 34,228 34,224C35.92,223.19 37.84,222.38 39.75,221.57C40.82,221.11 41.89,220.66 42.99,220.2C46.99,218.62 50.34,217.89 54.63,217.79C55.5,217.76 56.37,217.74 57.27,217.71C59.09,217.66 60.92,217.61 62.74,217.57C63.61,217.54 64.48,217.51 65.38,217.48C66.17,217.46 66.96,217.44 67.78,217.42C70.57,216.9 71.97,215.96 74,214C74.84,210.61 74.84,210.61 74,207C72.01,204.84 70.33,203.33 68,201.63C66.8,200.68 65.61,199.73 64.41,198.78C63.83,198.31 63.24,197.85 62.64,197.37C57.01,192.68 51.92,186.76 49,180C49.98,176.27 52.47,174.76 55.65,172.81C56.28,172.44 56.91,172.07 57.57,171.69C58.23,171.3 58.89,170.91 59.57,170.51C102.46,145.97 153.1,153.41 190.63,184.52Z" fill="#FD8EB7"/>
    <path d="M277.75,240.69C285.29,246.07 290.95,253.91 293,263C294.17,274.76 292.84,284.87 285.94,294.75C278.91,303.13 269.1,308.06 258.32,309.31C248.88,309.74 240.49,306.71 233,301C232.18,300.45 231.35,299.89 230.5,299.31C222.87,292.26 219.06,283.55 218.55,273.27C218.31,262.68 220.93,254.32 227.81,246.07C241.82,231.56 260.74,230.38 277.75,240.69Z" fill="#FCEFF8"/>
    <path d="M187.56,79.44C190.89,80.21 192.05,81.19 194,84C194.88,89.54 193.17,93.59 191.01,98.57C190.12,100.7 189.52,102.7 189,104.94C188,108 188,108 186.31,109.94C183,111.46 180.59,111.46 177,111C175,109.56 175,109.56 174,107C174,98.52 176.71,88.12 182.5,81.69C185,80 185,80 187.56,79.44Z" fill="#010101"/>
    <path d="M257.13,136.06C260.18,137.06 261.17,137.42 263.01,140C263.33,142.58 263.46,144.86 263.43,147.44C263.45,148.75 263.48,150.07 263.49,151.43C263.01,155 263.01,155 261.17,157.44C259.01,159 259.01,159 256.01,159.5C252.24,158.87 251.29,158.02 249.01,155C248.43,151.47 248.43,151.47 248.43,147.5C248.41,146.19 248.4,144.88 248.38,143.53C249.01,140 249.01,140 251.34,137.52C254.01,136 254.01,136 257.13,136.06Z" fill="#060304"/>
    <path d="M329,361C333.57,364.7 337.55,369.21 338.5,375.12C338,378 338,378 336.38,380.38C334,382 334,382 331.12,382.69C326.45,381.66 324.69,378.78 322,375C321.36,374.18 320.72,373.35 320.06,372.5C318.57,368.98 319.04,366.65 320,363C323.52,360.65 324.86,360.42 329,361Z" fill="#070405"/>
    <path d="M189,361C191.44,362.56 191.44,362.56 193,365C193.35,370.94 190.63,374.77 186.97,379.16C185,381 185,381 181.31,382.31C178,382 178,382 175.56,380.44C173.56,377.31 173.64,375.67 174,372C175.46,369.26 175.46,369.26 177.38,366.69C178.31,365.39 178.31,365.39 179.27,364.07C182.18,360.58 184.58,360.56 189,361Z" fill="#060304"/>
    <path d="M381,225C383.5,226.56 383.5,226.56 385,229C385,232.7 384.89,235 382.38,237.81C377.06,240.47 371.93,241.57 366,241C364.06,239.94 364.06,239.94 363,238C362.5,234.56 362.5,234.56 363,231C367.8,225.78 374.08,224.23 381,225Z" fill="#060304"/>
    <path d="M137.68,225.45C142,226.48 145.8,227.81 149,231C149.54,236.96 149.54,236.96 148,239.94C144.71,241.69 141.58,241.57 138,241C133.25,239.46 129.82,238.23 127,234C126.51,230.8 126.75,229.42 128.44,226.63C131.81,224.49 133.82,224.83 137.68,225.45Z" fill="#050303"/>
  </g>
</svg>
